<?xml version="1.0" standalone="no"?>
<!DOCTYPE svg PUBLIC "-//W3C//DTD SVG 20010904//EN"
 "http://www.w3.org/TR/2001/REC-SVG-20010904/DTD/svg10.dtd">
<svg version="1.0" xmlns="http://www.w3.org/2000/svg"
 width="200.000000pt" height="200.000000pt" viewBox="0 0 200.000000 200.000000"
 preserveAspectRatio="xMidYMid meet">
<metadata>
Created by potrace 1.11, written by Peter Selinger 2001-2013
</metadata>
<g transform="translate(0.000000,200.000000) scale(0.100000,-0.100000)"
fill="#000000" stroke="none">
<path d="M857 1665 l-226 -227 89 -88 c50 -48 90 -92 90 -98 0 -5 -11 -7 -24
-5 -45 9 -106 -53 -106 -107 0 -48 44 -95 99 -105 60 -11 128 60 117 122 -5
23 11 11 95 -73 l100 -101 81 81 c76 76 79 81 56 87 -42 11 -67 33 -82 70 -16
39 -9 97 16 126 22 27 76 44 114 37 42 -8 91 -54 96 -89 3 -24 9 -19 87 59
l84 84 -87 85 c-47 47 -86 88 -86 91 0 3 7 6 15 6 29 0 75 30 90 60 55 106
-59 217 -165 160 -26 -14 -60 -68 -60 -95 0 -14 -21 2 -83 63 l-83 83 -227
-226z"/>
<path d="M397 1202 l-207 -207 219 -220 c121 -121 224 -221 228 -222 4 -2 48
38 97 87 49 50 90 90 92 90 2 0 1 -12 -2 -27 -13 -68 76 -132 145 -104 104 43
73 201 -39 201 -16 0 -30 2 -30 4 0 2 36 39 81 83 l80 81 -57 61 -57 60 -38
-34 c-80 -72 -198 -54 -243 37 -30 60 -14 139 37 187 l26 24 -52 53 c-29 30
-57 54 -62 54 -6 0 -104 -93 -218 -208z"/>
<path d="M1047 895 c-26 -26 -47 -49 -47 -51 0 -3 13 -17 30 -30 52 -44 63
-144 22 -199 -24 -33 -84 -65 -121 -65 -45 0 -93 23 -122 57 l-24 29 -57 -59
c-32 -32 -58 -60 -58 -63 0 -2 94 -99 210 -214 l209 -209 82 82 c76 77 80 82
56 87 -55 11 -84 51 -92 125 -2 19 25 63 51 84 62 49 169 6 185 -73 3 -14 19
-3 72 49 37 37 67 70 67 74 0 4 -38 43 -84 88 -80 78 -82 81 -57 86 107 22
132 172 36 213 -67 28 -139 -7 -162 -80 l-9 -28 -70 72 -71 72 -46 -47z"/>
</g>
</svg>
